HIERARCHY
ROOT Hips
{
 OFFSET 0.000000 0.000000 0.000000
 CHANNELS 6 Xposition Yposition Zposition Yrotation Xrotation Zrotation
 JOINT Chest
 {
  OFFSET 0.000000 9.724570 -1.080508
  CHANNELS 3 Yrotation Xrotation Zrotation
  JOINT Chest2
  {
   OFFSET 0.000000 10.781023 0.000000
   CHANNELS 3 Yrotation Xrotation Zrotation
   JOINT Chest3
   {
    OFFSET 0.000000 9.842877 -0.000488
    CHANNELS 3 Yrotation Xrotation Zrotation
    JOINT Chest4
    {
     OFFSET 0.000000 9.831886 -0.000488
     CHANNELS 3 Yrotation Xrotation Zrotation
     JOINT Neck
     {
      OFFSET 0.000000 13.778020 0.000000
      CHANNELS 3 Yrotation Xrotation Zrotation
      JOINT Head
      {
       OFFSET 0.000000 9.153561 0.001049
       CHANNELS 3 Yrotation Xrotation Zrotation
       End Site
       {
        OFFSET 0.000000 17.013053 0.000141
       }
      }
     }
     JOINT RightCollar
     {
      OFFSET -2.998440 7.723576 0.000000
      CHANNELS 3 Yrotation Xrotation Zrotation
      JOINT RightShoulder
      {
       OFFSET -14.001811 0.000000 0.000000
       CHANNELS 3 Yrotation Xrotation Zrotation
       JOINT RightElbow
       {
        OFFSET -30.003712 0.000000 0.000000
        CHANNELS 3 Yrotation Xrotation Zrotation
        JOINT RightWrist
        {
         OFFSET -24.523460 0.000000 0.000000
         CHANNELS 3 Yrotation Xrotation Zrotation
         End Site
         {
          OFFSET -18.302352 0.000000 0.000000
         }
        }
       }
      }
     }
     JOINT LeftCollar
     {
      OFFSET 2.998440 7.723576 0.000000
      CHANNELS 3 Yrotation Xrotation Zrotation
      JOINT LeftShoulder
      {
       OFFSET 14.001811 0.000000 0.000000
       CHANNELS 3 Yrotation Xrotation Zrotation
       JOINT LeftElbow
       {
        OFFSET 30.003712 0.000000 0.000000
        CHANNELS 3 Yrotation Xrotation Zrotation
        JOINT LeftWrist
        {
         OFFSET 24.523460 0.000000 0.000000
         CHANNELS 3 Yrotation Xrotation Zrotation
         End Site
         {
          OFFSET 18.302352 0.000000 0.000000
         }
        }
       }
      }
     }
    }
   }
  }
 }
 JOINT RightHip
 {
  OFFSET -7.997399 0.002291 -0.000255
  CHANNELS 3 Yrotation Xrotation Zrotation
  JOINT RightKnee
  {
   OFFSET 0.000000 -41.619678 -0.000115
   CHANNELS 3 Yrotation Xrotation Zrotation
   JOINT RightAnkle
   {
    OFFSET 0.000000 -40.601393 -0.000194
    CHANNELS 3 Yrotation Xrotation Zrotation
    JOINT RightToe
    {
     OFFSET 0.000000 -6.581369 14.895014
     CHANNELS 3 Yrotation Xrotation Zrotation
     End Site
     {
      OFFSET 0.000000 -1.508064 6.450961
     }
    }
   }
  }
 }
 JOINT LeftHip
 {
  OFFSET 7.997399 0.000098 -0.000011
  CHANNELS 3 Yrotation Xrotation Zrotation
  JOINT LeftKnee
  {
   OFFSET 0.000000 -41.619678 -0.000115
   CHANNELS 3 Yrotation Xrotation Zrotation
   JOINT LeftAnkle
   {
    OFFSET 0.000000 -40.601393 -0.000194
    CHANNELS 3 Yrotation Xrotation Zrotation
    JOINT LeftToe
    {
     OFFSET 0.000000 -6.581369 14.895014
     CHANNELS 3 Yrotation Xrotation Zrotation
     End Site
     {
      OFFSET 0.000000 -1.508064 6.450961
     }
    }
   }
  }
 }
}
MOTION
Frames: 12
Frame Time: 0.016667
0.000000 90.139245 0.000000 0.000000 6.340192 0.000000 0.000000 -6.340192 0.000000 0.000000 -5.826342 0.000000 0.000000 -0.005910 0.000000 0.000000 5.832252 0.000000 0.000000 12.610213 0.000000 0.000000 -9.243752 0.000000 0.000000 0.000000 0.000000 0.000000 0.000000 0.000000 2.309063 0.000000 0.000000 -2.309063 0.000000 0.000000 0.000000 0.000000 0.000000 0.000000 0.000000 0.000000 -2.309063 0.000000 0.000000 2.309063 0.000000 0.000000 0.000000 -3.591006 0.000000 0.000000 1.872585 0.000000 0.000000 -4.621771 0.000000 0.000000 0.000000 0.000000 0.000000 -3.587706 0.000000 0.000000 1.905768 0.000000 0.000000 -4.658254 0.000000 0.000000 0.000000 0.000000
373.640656 90.408857 102.290072 -4.190411 1.724971 0.486251 -2.396878 -0.297720 0.115330 -1.070276 -5.959254 0.049990 -1.064489 -0.139832 -0.058652 -0.802904 5.731910 -0.044527 3.013015 15.062777 0.991827 5.266861 -8.039264 0.725117 1.258542 2.861152 8.852529 9.107450 -2.925703 73.804522 4.862606 -5.161624 2.819511 2.515987 19.524916 17.246643 1.447617 4.754866 -11.210084 -12.715101 -10.446205 -65.859252 -3.510482 -6.893686 -11.618225 6.255661 4.191139 -4.384584 -1.273872 -3.466559 -2.318750 0.523181 3.935891 0.497989 -0.800452 -1.992897 2.495015 0.000000 0.000000 -0.000000 -3.452739 -2.922685 1.002874 -0.611337 2.267500 -0.199136 2.522223 -0.369703 -2.002341 -0.001717 -0.473327 0.757254
373.669340 90.409596 102.299336 -4.194463 1.741415 0.496701 -2.383269 -0.283411 0.129954 -1.064894 -5.952966 0.056606 -1.059148 -0.133533 -0.051489 -0.798346 5.736622 -0.039116 2.993555 15.033057 0.975262 5.237257 -8.094281 0.700375 1.229130 2.803995 8.768642 9.100621 -2.902084 73.834372 4.866916 -5.155477 2.830949 2.524958 19.510274 17.185241 1.441086 4.700970 -11.104098 -12.696757 -10.447047 -65.989337 -3.521045 -6.910617 -11.639604 6.236839 4.178660 -4.342984 -1.280426 -3.450505 -2.319324 0.554858 3.897078 0.492452 -0.832950 -1.984703 2.481343 0.000000 -0.000000 -0.000000 -3.419062 -2.922999 0.980997 -0.640376 2.246660 -0.221311 2.515630 -0.346080 -1.967341 -0.002258 -0.525308 0.755672
373.696118 90.410378 102.308921 -4.190580 1.755868 0.505464 -2.373817 -0.268181 0.145594 -1.061407 -5.946273 0.063678 -1.055693 -0.126834 -0.044063 -0.795183 5.741633 -0.033506 2.976124 14.999704 0.958158 5.211731 -8.155979 0.673741 1.202022 2.752107 8.692536 9.097770 -2.882672 73.857185 4.870460 -5.159698 2.843106 2.533189 19.496345 17.143811 1.435985 4.650911 -11.006462 -12.679924 -10.448938 -66.109138 -3.533461 -6.929503 -11.663419 6.222936 4.167956 -4.315817 -1.297790 -3.434506 -2.323123 0.583092 3.858148 0.486173 -0.860499 -1.975619 2.472392 -0.000000 0.000000 0.000000 -3.395578 -2.924185 0.961728 -0.669862 2.228834 -0.240832 2.512900 -0.325815 -1.938919 -0.002704 -0.567769 0.757175
373.720043 90.411203 102.319352 -4.172680 1.766436 0.511709 -2.371956 -0.251203 0.163083 -1.061378 -5.938816 0.071581 -1.055679 -0.119377 -0.036158 -0.794564 5.747213 -0.027534 2.960910 14.959342 0.939390 5.191133 -8.230581 0.642918 1.178134 2.708729 8.627390 9.100892 -2.870561 73.868143 4.872693 -5.183914 2.856965 2.540117 19.482568 17.137837 1.433717 4.607127 -10.920637 -12.663013 -10.452938 -66.214011 -3.550597 -6.953761 -11.693279 6.217634 4.158187 -4.314012 -1.336147 -3.416893 -2.332800 0.606400 3.817110 0.479018 -0.878922 -1.964889 2.470890 -0.000000 0.000000 0.000000 -3.387805 -2.925870 0.946600 -0.701381 2.215255 -0.256653 2.515821 -0.310625 -1.921554 -0.003012 -0.595105 0.764486
373.742063 90.412072 102.330104 -4.146848 1.775009 0.516271 -2.374250 -0.233311 0.181599 -1.063244 -5.930958 0.079944 -1.057551 -0.111522 -0.027984 -0.795338 5.753090 -0.021360 2.947740 14.915353 0.920077 5.174654 -8.311852 0.610177 1.156514 2.670627 8.570013 9.107965 -2.862666 73.872066 4.874146 -5.218496 2.871556 2.546291 19.469516 17.151833 1.432891 4.567197 -10.843163 -12.647596 -10.458003 -66.308605 -3.569567 -6.979979 -11.725577 6.217283 4.150186 -4.326633 -1.385318 -3.399342 -2.345700 0.626255 3.775942 0.471147 -0.892390 -1.953261 2.474106 -0.000000 0.000000 -0.000000 -3.390221 -2.928440 0.934089 -0.733346 2.204686 -0.269823 2.522585 -0.298803 -1.910764 -0.003233 -0.612920 0.774876
373.763111 90.413031 102.339909 -4.123408 1.785280 0.519965 -2.374565 -0.216071 0.199678 -1.064212 -5.923387 0.088109 -1.058528 -0.103954 -0.019917 -0.795451 5.758753 -0.015266 2.938069 14.874254 0.903024 5.163833 -8.387759 0.580446 1.136602 2.633398 8.518589 9.116914 -2.853931 73.876377 4.875673 -5.244928 2.884666 2.552649 19.459609 17.159318 1.430713 4.527718 -10.771991 -12.639882 -10.462143 -66.396569 -3.583634 -6.999864 -11.751912 6.215817 4.148223 -4.335313 -1.425569 -3.386924 -2.357070 0.643643 3.740472 0.462294 -0.908479 -1.942096 2.478574 0.000000 0.000000 0.000000 -3.396443 -2.933931 0.922229 -0.761443 2.196429 -0.280833 2.531631 -0.288586 -1.899687 -0.003425 -0.628508 0.783241
373.783583 90.414048 102.347660 -4.107635 1.800589 0.522810 -2.369564 -0.200226 0.217133 -1.062789 -5.916431 0.095991 -1.057127 -0.096994 -0.011890 -0.793782 5.763958 -0.009204 2.933837 14.837606 0.889131 5.161930 -8.455390 0.554728 1.119201 2.595102 8.473495 9.128185 -2.841970 73.882473 4.877782 -5.253557 2.894941 2.560043 19.454755 17.146337 1.425658 4.487116 -10.707186 -12.648453 -10.464937 -66.478843 -3.588042 -7.007041 -11.766913 6.210588 4.160131 -4.333255 -1.445052 -3.385047 -2.364872 0.658102 3.714803 0.451650 -0.932195 -1.931758 2.483765 0.000000 -0.000000 -0.000000 -3.406715 -2.946075 0.910462 -0.783522 2.191765 -0.289324 2.546080 -0.280110 -1.885527 -0.003601 -0.644111 0.787114
373.803083 90.415156 102.354465 -4.094255 1.817597 0.524786 -2.362582 -0.185032 0.234146 -1.060466 -5.909760 0.103673 -1.054830 -0.090319 -0.003973 -0.791450 5.768951 -0.003223 2.933084 14.803860 0.877475 5.165654 -8.517635 0.531982 1.103504 2.557695 8.434341 9.141332 -2.829171 73.888960 4.879981 -5.254036 2.903725 2.567617 19.453044 17.126836 1.419246 4.446968 -10.648680 -12.664728 -10.466903 -66.554468 -3.587579 -7.007878 -11.775941 6.204238 4.178074 -4.327250 -1.455610 -3.388294 -2.371143 0.670098 3.694837 0.440024 -0.958533 -1.921879 2.490209 0.000000 0.000000 0.000000 -3.420793 -2.961145 0.899351 -0.801733 2.189412 -0.295661 2.562810 -0.273242 -1.871080 -0.003743 -0.657488 0.788963
373.821357 90.416503 102.362386 -4.077763 1.829975 0.526650 -2.357493 -0.169826 0.249801 -1.058924 -5.903077 0.110746 -1.053310 -0.083634 0.003257 -0.789754 5.773953 0.002238 2.931406 14.774857 0.868139 5.166673 -8.571175 0.514092 1.086542 2.522604 8.398158 9.152948 -2.817647 73.899067 4.881630 -5.256807 2.912852 2.573800 19.451170 17.116206 1.413239 4.408604 -10.594238 -12.669167 -10.467404 -66.624260 -3.589826 -7.013186 -11.786696 6.198616 4.182824 -4.319328 -1.473044 -3.385501 -2.377233 0.682014 3.674106 0.429563 -0.980049 -1.912720 2.496035 -0.000000 -0.000000 -0.000000 -3.431569 -2.969986 0.888596 -0.818222 2.184832 -0.301416 2.570900 -0.265805 -1.857868 -0.003864 -0.669211 0.791090
373.837976 90.418302 102.372472 -4.053978 1.834671 0.528610 -2.355971 -0.154541 0.263155 -1.058865 -5.896350 0.116790 -1.053264 -0.076906 0.009307 -0.789255 5.778988 0.006811 2.927392 14.752366 0.862417 5.161803 -8.612814 0.504089 1.065123 2.491227 8.364597 9.162677 -2.808846 73.915484 4.881243 -5.267293 2.922053 2.577023 19.447540 17.122426 1.406121 4.372806 -10.542216 -12.650716 -10.465524 -66.688588 -3.599497 -7.030530 -11.802727 6.193823 4.157498 -4.306675 -1.508113 -3.370876 -2.383238 0.695097 3.648927 0.420996 -0.991327 -1.904142 2.500247 0.000000 -0.000000 -0.000000 -3.435749 -2.968065 0.878272 -0.833688 2.175368 -0.307005 2.563086 -0.256135 -1.846743 -0.003966 -0.679400 0.794378
373.853369 90.420340 102.383675 -4.027083 1.834736 0.530452 -2.356348 -0.139245 0.275155 -1.059590 -5.889612 0.122228 -1.053999 -0.070169 0.014671 -0.789393 5.784031 0.010866 2.922442 14.734612 0.859027 5.154195 -8.645767 0.498982 1.042435 2.462159 8.334014 9.170877 -2.801321 73.935520 4.880305 -5.280072 2.931602 2.578865 19.443748 17.137525 1.399387 4.338799 -10.494255 -12.620418 -10.462068 -66.747097 -3.611850 -7.052348 -11.820498 6.189737 4.118981 -4.292116 -1.550060 -3.350213 -2.389071 0.708098 3.622979 0.413599 -0.997786 -1.896290 2.503844 0.000000 0.000000 -0.000000 -3.436627 -2.959910 0.868303 -0.847432 2.163678 -0.312015 2.546632 -0.245889 -1.836854 -0.004047 -0.687935 0.797945
